<mxfile host="app.diagrams.net" modified="2023-09-27T09:57:41.533Z" agent="Mozilla/5.0 (X11; Linux x86_64; rv:109.0) Gecko/20100101 Firefox/117.0" etag="TMgY80ls1maBqbUAoBg7" version="21.8.2" type="device">
  <diagram name="Page-1" id="xJSx29i0jH3urcjEXU_e">
    <mxGraphModel dx="1434" dy="748" grid="1" gridSize="10" guides="1" tooltips="1" connect="1" arrows="1" fold="1" page="1" pageScale="1" pageWidth="827" pageHeight="1169" math="0" shadow="0">
      <root>
        <mxCell id="0" />
        <mxCell id="1" parent="0" />
        <mxCell id="MN7laLiymDpfMGy2GReW-1" value="&lt;font style=&quot;font-size: 24px;&quot;&gt;Development Roadmap&lt;/font&gt;" style="text;html=1;strokeColor=none;fillColor=none;align=center;verticalAlign=middle;whiteSpace=wrap;rounded=0;" parent="1" vertex="1">
          <mxGeometry x="60" y="150" width="1360" height="30" as="geometry" />
        </mxCell>
        <mxCell id="MN7laLiymDpfMGy2GReW-8" value="&lt;h1&gt;&lt;font style=&quot;font-size: 16px;&quot;&gt;Phase I: Initial Planning&lt;/font&gt;&lt;/h1&gt;&lt;div&gt;This phase sets the base of game setting&lt;br&gt;&lt;/div&gt;&lt;ul&gt;&lt;li&gt;Outline game setting, characters and world: What kind of environments will we have? What kind of NPCs?&lt;br&gt;&lt;/li&gt;&lt;li&gt;Game mechanics and interactions: 2D or 3D? Only text based responses or convert text to speech? &lt;br&gt;&lt;/li&gt;&lt;/ul&gt;" style="text;html=1;strokeColor=none;fillColor=none;spacing=5;spacingTop=-20;whiteSpace=wrap;overflow=hidden;rounded=0;" parent="1" vertex="1">
          <mxGeometry x="50" y="240" width="240" height="230" as="geometry" />
        </mxCell>
        <mxCell id="MN7laLiymDpfMGy2GReW-9" value="" style="shape=flexArrow;endArrow=classic;html=1;rounded=0;" parent="1" edge="1">
          <mxGeometry width="50" height="50" relative="1" as="geometry">
            <mxPoint x="310" y="310" as="sourcePoint" />
            <mxPoint x="400" y="310" as="targetPoint" />
          </mxGeometry>
        </mxCell>
        <mxCell id="MN7laLiymDpfMGy2GReW-10" value="&lt;h1&gt;&lt;font style=&quot;font-size: 16px;&quot;&gt;Phase II: Technology selection&lt;/font&gt;&lt;/h1&gt;&lt;div&gt;We dedicate this to purely decide the technologies. Better to choose with the lease amount of learning curve.&lt;br&gt;&lt;/div&gt;&lt;ul&gt;&lt;li&gt;Choose a game engine: Unity? Godot? pure vanilla JS?&lt;/li&gt;&lt;li&gt;Desktop or Webapp&lt;br&gt;&lt;/li&gt;&lt;li&gt;Server for hosting APIs&lt;/li&gt;&lt;li&gt;Choose a language model: Bard? LLmA? GPT? DALL-E (environment generation).&lt;/li&gt;&lt;li&gt;Text-to-Speech and Speech-to-Text module selection&lt;/li&gt;&lt;/ul&gt;" style="text;html=1;strokeColor=none;fillColor=none;spacing=5;spacingTop=-20;whiteSpace=wrap;overflow=hidden;rounded=0;" parent="1" vertex="1">
          <mxGeometry x="420" y="240" width="260" height="210" as="geometry" />
        </mxCell>
        <mxCell id="MN7laLiymDpfMGy2GReW-12" value="" style="shape=flexArrow;endArrow=classic;html=1;rounded=0;" parent="1" edge="1">
          <mxGeometry width="50" height="50" relative="1" as="geometry">
            <mxPoint x="710" y="310" as="sourcePoint" />
            <mxPoint x="800" y="310" as="targetPoint" />
          </mxGeometry>
        </mxCell>
        <mxCell id="MN7laLiymDpfMGy2GReW-13" value="&lt;h1&gt;&lt;font style=&quot;font-size: 16px;&quot;&gt;Phase III: Game Design&lt;/font&gt;&lt;/h1&gt;&lt;div&gt;Based on the technology selected, we need to recognize the components related to:&lt;/div&gt;&lt;div&gt;&lt;ul&gt;&lt;li&gt;Game mechanics development: character movement, interactions, API integration.&lt;br&gt;&lt;/li&gt;&lt;li&gt;Game character development: Player and NPC design, environment design, etc.&lt;br&gt;&lt;/li&gt;&lt;li&gt;API structuring: Creating API structure for sending and receiving responses and data in game.&lt;/li&gt;&lt;li&gt;Text2Speech, Speech2Text, Text2Text, Speech2Speech&lt;/li&gt;&lt;/ul&gt;&lt;div&gt;The next important thing would be to make sure that all these components communicate with each other well.&lt;br&gt;&lt;/div&gt;&lt;/div&gt;" style="text;html=1;strokeColor=none;fillColor=none;spacing=5;spacingTop=-20;whiteSpace=wrap;overflow=hidden;rounded=0;" parent="1" vertex="1">
          <mxGeometry x="820" y="240" width="260" height="310" as="geometry" />
        </mxCell>
        <mxCell id="MN7laLiymDpfMGy2GReW-14" value="" style="shape=flexArrow;endArrow=classic;html=1;rounded=0;" parent="1" edge="1">
          <mxGeometry width="50" height="50" relative="1" as="geometry">
            <mxPoint x="310" y="310" as="sourcePoint" />
            <mxPoint x="400" y="310" as="targetPoint" />
          </mxGeometry>
        </mxCell>
        <mxCell id="MN7laLiymDpfMGy2GReW-18" value="" style="shape=flexArrow;endArrow=classic;html=1;rounded=0;" parent="1" edge="1">
          <mxGeometry width="50" height="50" relative="1" as="geometry">
            <mxPoint x="1090" y="310" as="sourcePoint" />
            <mxPoint x="1180" y="310" as="targetPoint" />
          </mxGeometry>
        </mxCell>
        <mxCell id="MN7laLiymDpfMGy2GReW-19" value="&lt;h1&gt;&lt;font style=&quot;font-size: 16px;&quot;&gt;Phase IV: Game release&lt;br&gt;&lt;/font&gt;&lt;/h1&gt;&lt;div&gt;How would we present this to the class?&lt;br&gt;&lt;/div&gt;&lt;div&gt;&lt;br&gt;&lt;/div&gt;&lt;div&gt;How do we package this application? Desktop? Android? iOS? (irrespective of whether it is a Web based game or native game)&lt;br&gt;&lt;/div&gt;&lt;div&gt;&lt;br&gt;&lt;/div&gt;&lt;div&gt;&lt;br&gt;&lt;/div&gt;" style="text;html=1;strokeColor=none;fillColor=none;spacing=5;spacingTop=-20;whiteSpace=wrap;overflow=hidden;rounded=0;" parent="1" vertex="1">
          <mxGeometry x="1200" y="240" width="260" height="310" as="geometry" />
        </mxCell>
      </root>
    </mxGraphModel>
  </diagram>
</mxfile>
